<svg width="881" height="213" viewBox="0 0 881 213" fill="none" xmlns="http://www.w3.org/2000/svg">
<path d="M62.1087 210.779C50.6782 210.779 40.3132 208.078 31.0137 202.676C21.7143 197.074 14.2554 189.671 8.637 180.468C3.21233 171.064 0.5 160.46 0.5 148.656C0.5 139.853 2.34051 131.65 6.02154 124.047C9.8963 116.244 15.0304 109.541 21.4237 103.939C15.4178 98.5372 10.5744 92.1348 6.89336 84.732C3.21233 77.3293 1.37182 69.5264 1.37182 61.3233C1.37182 49.9191 4.08415 39.6152 9.50882 30.4118C14.9335 21.2084 22.1987 14.0057 31.3044 8.80372C40.41 3.4017 50.4844 0.700692 61.5275 0.700692L115.164 0.700684C126.436 0.700682 135.575 10.1548 135.575 21.817C135.575 33.5117 126.387 42.9791 115.083 42.9332L69.0833 42.7164C63.4649 42.7164 58.6214 44.7171 54.5529 48.7186C50.6782 52.52 48.7408 57.3218 48.7408 63.124C48.7408 68.9261 50.6782 73.7279 54.5529 77.5294C58.6214 81.3308 63.4649 83.2315 69.0833 83.2315H134.37C145.585 83.2315 154.677 92.637 154.677 104.239C154.677 115.842 145.585 125.247 134.37 125.247H70.5363C64.3367 125.247 59.1058 127.348 54.8435 131.55C50.775 135.751 48.7408 140.953 48.7408 147.155C48.7408 153.358 50.775 158.46 54.8435 162.461C59.1058 166.463 64.3367 168.463 70.5363 168.463H94.0426C105.338 168.463 112.436 177.788 114.494 189.621C116.327 200.161 120.725 210.779 107.163 210.779H62.1087Z" fill="url(#paint0_linear_1301_4689)"/>
<path d="M164.343 168.463H133.113C120.65 168.463 125.782 178.168 129.447 189.621C133.113 201.075 134.004 210.098 147.116 210.779L164.343 210.779C175.638 210.779 184.795 201.306 184.795 189.621C184.795 177.936 175.638 168.463 164.343 168.463Z" fill="url(#paint1_linear_1301_4689)"/>
<path d="M251.958 132.759C243.177 132.759 235.405 131.215 228.643 128.127C221.881 125.04 216.582 120.608 212.747 114.831C208.912 109.055 206.994 102.232 206.994 94.3642C206.994 85.6993 208.861 78.379 212.596 72.4032C216.33 66.3279 221.225 61.7464 227.281 58.659C233.437 55.5715 240.099 54.0277 247.265 54.0277C254.834 54.0277 261.445 55.6213 267.097 58.8084C272.749 61.8958 277.089 66.2781 280.117 71.9551C283.245 77.632 284.81 84.2552 284.81 91.8245C284.81 93.418 284.709 95.2606 284.507 97.3521C284.305 99.344 284.053 101.037 283.75 102.432H234.245C235.052 105.718 236.869 108.158 239.695 109.752C242.521 111.345 246.104 112.142 250.444 112.142H276.18V132.759H251.958ZM233.336 87.3427H259.981C259.881 83.7572 258.72 80.7195 256.499 78.2296C254.279 75.7397 251.1 74.4948 246.962 74.4948C242.723 74.4948 239.493 75.7895 237.273 78.379C235.052 80.8689 233.74 83.8568 233.336 87.3427Z" fill="#313131"/>
<path d="M288.012 132.759V23.7007H314.202V132.759H288.012Z" fill="#313131"/>
<path d="M362.711 132.759C353.93 132.759 346.158 131.215 339.396 128.127C332.634 125.04 327.335 120.608 323.5 114.831C319.665 109.055 317.747 102.232 317.747 94.3642C317.747 85.6993 319.614 78.379 323.349 72.4032C327.083 66.3279 331.978 61.7464 338.034 58.659C344.19 55.5715 350.852 54.0277 358.017 54.0277C365.587 54.0277 372.198 55.6213 377.85 58.8084C383.502 61.8958 387.842 66.2781 390.87 71.9551C393.998 77.632 395.563 84.2552 395.563 91.8245C395.563 93.418 395.462 95.2606 395.26 97.3521C395.058 99.344 394.806 101.037 394.503 102.432H344.998C345.805 105.718 347.622 108.158 350.448 109.752C353.274 111.345 356.857 112.142 361.197 112.142H386.933V132.759H362.711ZM344.089 87.3427H370.734C370.634 83.7572 369.473 80.7195 367.252 78.2296C365.032 75.7397 361.853 74.4948 357.715 74.4948C353.476 74.4948 350.246 75.7895 348.026 78.379C345.805 80.8689 344.493 83.8568 344.089 87.3427Z" fill="#313131"/>
<path d="M398.765 132.759V87.6415C398.765 80.9685 400.278 75.1421 403.306 70.1623C406.435 65.0829 410.775 61.1489 416.326 58.3602C421.877 55.4719 428.488 54.0277 436.158 54.0277C441.911 54.0277 447.008 54.8743 451.449 56.5674C455.991 58.2606 459.725 60.4517 462.652 63.1408H462.955C465.882 60.4517 469.566 58.2606 474.007 56.5674C478.447 54.8743 483.595 54.0277 489.449 54.0277C497.119 54.0277 503.78 55.4719 509.432 58.3602C515.084 61.1489 519.424 65.0829 522.452 70.1623C525.48 75.1421 526.994 80.9685 526.994 87.6415V132.759H500.803L500.652 88.8366C500.652 85.6495 499.541 82.8608 497.321 80.4705C495.101 78.0802 492.123 76.8851 488.389 76.8851C484.654 76.8851 481.627 78.0802 479.305 80.4705C477.085 82.8608 475.975 85.6495 475.975 88.8366V132.759H449.784V88.8366C449.784 85.6495 448.623 82.8608 446.302 80.4705C443.98 78.0802 440.953 76.8851 437.218 76.8851C433.585 76.8851 430.607 78.0802 428.286 80.4705C426.066 82.8608 424.955 85.6495 424.955 88.8366V132.759H398.765Z" fill="#313131"/>
<path d="M575.328 132.759C566.547 132.759 558.776 131.215 552.014 128.127C545.252 125.04 539.953 120.608 536.118 114.831C532.282 109.055 530.365 102.232 530.365 94.3642C530.365 85.6993 532.232 78.379 535.966 72.4032C539.701 66.3279 544.596 61.7464 550.651 58.659C556.808 55.5715 563.469 54.0277 570.635 54.0277C578.205 54.0277 584.815 55.6213 590.467 58.8084C596.119 61.8958 600.459 66.2781 603.487 71.9551C606.616 77.632 608.18 84.2552 608.18 91.8245C608.18 93.418 608.079 95.2606 607.878 97.3521C607.676 99.344 607.423 101.037 607.121 102.432H557.615C558.423 105.718 560.239 108.158 563.065 109.752C565.891 111.345 569.474 112.142 573.814 112.142H599.551V132.759H575.328ZM556.707 87.3427H583.352C583.251 83.7572 582.09 80.7195 579.87 78.2296C577.65 75.7397 574.47 74.4948 570.332 74.4948C566.093 74.4948 562.864 75.7895 560.643 78.379C558.423 80.8689 557.111 83.8568 556.707 87.3427Z" fill="#313131"/>
<path d="M611.533 132.759V113.337H648.473C649.886 113.337 650.996 112.939 651.804 112.142C652.611 111.345 653.015 110.3 653.015 109.005C653.015 107.909 652.611 106.913 651.804 106.017C650.996 105.121 649.886 104.672 648.473 104.672H635.756C630.71 104.672 626.118 103.826 621.98 102.133C617.841 100.44 614.511 97.8003 611.988 94.2148C609.565 90.6294 608.354 85.9483 608.354 80.1717C608.354 75.6899 609.464 71.6065 611.685 67.9214C614.006 64.2363 617.085 61.2983 620.92 59.1071C624.755 56.916 628.994 55.8205 633.637 55.8205H672.242V75.0923H638.784C637.573 75.0923 636.564 75.4907 635.756 76.2875C634.949 77.0843 634.545 78.0802 634.545 79.2754C634.545 80.3709 634.949 81.3171 635.756 82.1139C636.564 82.9106 637.573 83.309 638.784 83.309H650.896C659.575 83.309 666.438 85.2512 671.485 89.1354C676.531 93.0197 679.054 99.344 679.054 108.108C679.054 112.59 677.894 116.724 675.572 120.508C673.251 124.193 670.122 127.181 666.186 129.472C662.351 131.663 658.011 132.759 653.166 132.759H611.533Z" fill="#313131"/>
<path d="M694.703 134.701C690.565 134.701 687.033 133.207 684.106 130.219C681.179 127.231 679.716 123.695 679.716 119.612C679.716 115.528 681.179 112.043 684.106 109.154C687.033 106.166 690.565 104.672 694.703 104.672C698.942 104.672 702.525 106.166 705.452 109.154C708.48 112.043 709.994 115.528 709.994 119.612C709.994 123.695 708.48 127.231 705.452 130.219C702.525 133.207 698.942 134.701 694.703 134.701Z" fill="#313131"/>
<path d="M711.502 132.762V55.9757H737.735V132.762H711.502ZM724.618 47.6261C720.598 47.6261 717.13 46.1848 714.216 43.3022C711.401 40.4196 709.994 37.04 709.994 33.1634C709.994 29.1874 711.401 25.8078 714.216 23.0246C717.13 20.142 720.598 18.7007 724.618 18.7007C728.639 18.7007 732.056 20.142 734.87 23.0246C737.785 25.8078 739.242 29.1874 739.242 33.1634C739.242 37.04 737.785 40.4196 734.87 43.3022C732.056 46.1848 728.639 47.6261 724.618 47.6261Z" fill="#3180C8"/>
<path d="M783.629 134.701C792.072 134.701 799.46 133.011 805.792 129.631C812.224 126.152 817.2 121.282 820.717 115.019C824.235 108.757 825.994 101.402 825.994 92.9526V23.9192H799.761V63.1326H799.158C796.846 60.25 793.881 58.0631 790.263 56.5721C786.645 54.9817 782.675 54.1865 778.353 54.1865C771.217 54.1865 764.834 55.8266 759.206 59.1069C753.678 62.2877 749.305 66.8104 746.089 72.675C742.873 78.5396 741.265 85.3485 741.265 93.1017C741.265 101.253 742.973 108.459 746.391 114.721C749.808 120.983 754.683 125.904 761.015 129.482C767.347 132.961 774.885 134.701 783.629 134.701ZM783.629 112.187C778.905 112.187 775.086 110.497 772.171 107.117C769.357 103.738 767.95 99.513 767.95 94.4436C767.95 89.4736 769.357 85.3485 772.171 82.0683C775.086 78.7881 778.905 77.148 783.629 77.148C788.253 77.148 792.022 78.7881 794.937 82.0683C797.852 85.3485 799.309 89.4736 799.309 94.4436C799.309 99.513 797.852 103.738 794.937 107.117C792.022 110.497 788.253 112.187 783.629 112.187Z" fill="#3180C8"/>
<path d="M222.353 182.49V204.035H218.819V182.49H222.353Z" fill="#303030"/>
<path d="M235.301 186.675C236.644 186.675 237.843 186.954 238.897 187.512C239.971 188.07 240.808 188.897 241.408 189.992C242.007 191.087 242.307 192.41 242.307 193.96V204.035H238.804V194.487C238.804 192.958 238.421 191.79 237.657 190.984C236.892 190.157 235.848 189.744 234.526 189.744C233.203 189.744 232.149 190.157 231.364 190.984C230.599 191.79 230.217 192.958 230.217 194.487V204.035H226.683V186.954H230.217V188.907C230.795 188.204 231.529 187.657 232.418 187.264C233.327 186.871 234.288 186.675 235.301 186.675Z" fill="#303030"/>
<path d="M245.327 195.417C245.327 193.702 245.678 192.183 246.381 190.86C247.104 189.537 248.075 188.514 249.295 187.791C250.535 187.047 251.909 186.675 253.418 186.675C254.534 186.675 255.629 186.923 256.704 187.419C257.799 187.894 258.667 188.535 259.308 189.341V181.095H262.873V204.035H259.308V201.462C258.729 202.289 257.923 202.971 256.89 203.508C255.877 204.045 254.709 204.314 253.387 204.314C251.899 204.314 250.535 203.942 249.295 203.198C248.075 202.433 247.104 201.379 246.381 200.036C245.678 198.672 245.327 197.132 245.327 195.417ZM259.308 195.479C259.308 194.301 259.06 193.278 258.564 192.41C258.088 191.542 257.458 190.881 256.673 190.426C255.887 189.971 255.04 189.744 254.131 189.744C253.221 189.744 252.374 189.971 251.589 190.426C250.803 190.86 250.163 191.511 249.667 192.379C249.191 193.226 248.954 194.239 248.954 195.417C248.954 196.595 249.191 197.628 249.667 198.517C250.163 199.406 250.803 200.088 251.589 200.563C252.395 201.018 253.242 201.245 254.131 201.245C255.04 201.245 255.887 201.018 256.673 200.563C257.458 200.108 258.088 199.447 258.564 198.579C259.06 197.69 259.308 196.657 259.308 195.479Z" fill="#303030"/>
<path d="M274.613 204.314C273.001 204.314 271.544 203.952 270.242 203.229C268.94 202.485 267.917 201.452 267.173 200.129C266.429 198.786 266.057 197.236 266.057 195.479C266.057 193.743 266.44 192.203 267.204 190.86C267.969 189.517 269.013 188.483 270.335 187.76C271.658 187.037 273.136 186.675 274.768 186.675C276.401 186.675 277.879 187.037 279.201 187.76C280.524 188.483 281.568 189.517 282.332 190.86C283.097 192.203 283.479 193.743 283.479 195.479C283.479 197.215 283.087 198.755 282.301 200.098C281.516 201.441 280.441 202.485 279.077 203.229C277.734 203.952 276.246 204.314 274.613 204.314ZM274.613 201.245C275.523 201.245 276.37 201.028 277.155 200.594C277.961 200.16 278.612 199.509 279.108 198.641C279.604 197.773 279.852 196.719 279.852 195.479C279.852 194.239 279.615 193.195 279.139 192.348C278.664 191.48 278.034 190.829 277.248 190.395C276.463 189.961 275.616 189.744 274.706 189.744C273.797 189.744 272.95 189.961 272.164 190.395C271.4 190.829 270.79 191.48 270.335 192.348C269.881 193.195 269.653 194.239 269.653 195.479C269.653 197.318 270.118 198.744 271.048 199.757C271.999 200.749 273.187 201.245 274.613 201.245Z" fill="#303030"/>
<path d="M295.281 186.675C296.624 186.675 297.823 186.954 298.877 187.512C299.951 188.07 300.788 188.897 301.388 189.992C301.987 191.087 302.287 192.41 302.287 193.96V204.035H298.784V194.487C298.784 192.958 298.401 191.79 297.637 190.984C296.872 190.157 295.829 189.744 294.506 189.744C293.183 189.744 292.129 190.157 291.344 190.984C290.579 191.79 290.197 192.958 290.197 194.487V204.035H286.663V186.954H290.197V188.907C290.775 188.204 291.509 187.657 292.398 187.264C293.307 186.871 294.268 186.675 295.281 186.675Z" fill="#303030"/>
<path d="M322.14 195.076C322.14 195.717 322.098 196.295 322.016 196.812H308.965C309.068 198.176 309.574 199.271 310.484 200.098C311.393 200.925 312.509 201.338 313.832 201.338C315.733 201.338 317.076 200.542 317.862 198.951H321.675C321.158 200.522 320.218 201.813 318.854 202.826C317.51 203.818 315.836 204.314 313.832 204.314C312.199 204.314 310.732 203.952 309.43 203.229C308.148 202.485 307.136 201.452 306.392 200.129C305.668 198.786 305.307 197.236 305.307 195.479C305.307 193.722 305.658 192.183 306.361 190.86C307.084 189.517 308.086 188.483 309.368 187.76C310.67 187.037 312.158 186.675 313.832 186.675C315.444 186.675 316.88 187.026 318.141 187.729C319.401 188.432 320.383 189.424 321.086 190.705C321.788 191.966 322.14 193.423 322.14 195.076ZM318.451 193.96C318.43 192.658 317.965 191.614 317.056 190.829C316.146 190.044 315.02 189.651 313.677 189.651C312.457 189.651 311.414 190.044 310.546 190.829C309.678 191.594 309.161 192.637 308.996 193.96H318.451Z" fill="#303030"/>
<path d="M331.507 204.314C330.164 204.314 328.955 204.076 327.88 203.601C326.826 203.105 325.989 202.444 325.369 201.617C324.749 200.77 324.419 199.829 324.377 198.796H328.035C328.097 199.519 328.438 200.129 329.058 200.625C329.699 201.1 330.495 201.338 331.445 201.338C332.437 201.338 333.202 201.152 333.739 200.78C334.297 200.387 334.576 199.891 334.576 199.292C334.576 198.651 334.266 198.176 333.646 197.866C333.047 197.556 332.086 197.215 330.763 196.843C329.482 196.492 328.438 196.151 327.632 195.82C326.826 195.489 326.124 194.983 325.524 194.301C324.946 193.619 324.656 192.72 324.656 191.604C324.656 190.695 324.925 189.868 325.462 189.124C326 188.359 326.764 187.76 327.756 187.326C328.769 186.892 329.926 186.675 331.228 186.675C333.171 186.675 334.731 187.171 335.909 188.163C337.108 189.134 337.749 190.467 337.831 192.162H334.297C334.235 191.397 333.925 190.788 333.367 190.333C332.809 189.878 332.055 189.651 331.104 189.651C330.174 189.651 329.461 189.827 328.965 190.178C328.469 190.529 328.221 190.994 328.221 191.573C328.221 192.028 328.387 192.41 328.717 192.72C329.048 193.03 329.451 193.278 329.926 193.464C330.402 193.629 331.104 193.846 332.034 194.115C333.274 194.446 334.287 194.787 335.072 195.138C335.878 195.469 336.571 195.965 337.149 196.626C337.728 197.287 338.028 198.166 338.048 199.261C338.048 200.232 337.78 201.1 337.242 201.865C336.705 202.63 335.94 203.229 334.948 203.663C333.977 204.097 332.83 204.314 331.507 204.314Z" fill="#303030"/>
<path d="M343.355 184.691C342.714 184.691 342.177 184.474 341.743 184.04C341.309 183.606 341.092 183.069 341.092 182.428C341.092 181.787 341.309 181.25 341.743 180.816C342.177 180.382 342.714 180.165 343.355 180.165C343.975 180.165 344.502 180.382 344.936 180.816C345.37 181.25 345.587 181.787 345.587 182.428C345.587 183.069 345.37 183.606 344.936 184.04C344.502 184.474 343.975 184.691 343.355 184.691ZM345.091 186.954V204.035H341.557V186.954H345.091Z" fill="#303030"/>
<path d="M348.243 195.417C348.243 193.702 348.594 192.183 349.297 190.86C350.02 189.537 350.992 188.514 352.211 187.791C353.451 187.047 354.815 186.675 356.303 186.675C357.646 186.675 358.814 186.944 359.806 187.481C360.819 187.998 361.625 188.649 362.224 189.434V186.954H365.789V204.035H362.224V201.493C361.625 202.299 360.808 202.971 359.775 203.508C358.742 204.045 357.564 204.314 356.241 204.314C354.774 204.314 353.43 203.942 352.211 203.198C350.992 202.433 350.02 201.379 349.297 200.036C348.594 198.672 348.243 197.132 348.243 195.417ZM362.224 195.479C362.224 194.301 361.976 193.278 361.48 192.41C361.005 191.542 360.374 190.881 359.589 190.426C358.804 189.971 357.956 189.744 357.047 189.744C356.138 189.744 355.29 189.971 354.505 190.426C353.72 190.86 353.079 191.511 352.583 192.379C352.108 193.226 351.87 194.239 351.87 195.417C351.87 196.595 352.108 197.628 352.583 198.517C353.079 199.406 353.72 200.088 354.505 200.563C355.311 201.018 356.158 201.245 357.047 201.245C357.956 201.245 358.804 201.018 359.589 200.563C360.374 200.108 361.005 199.447 361.48 198.579C361.976 197.69 362.224 196.657 362.224 195.479Z" fill="#303030"/>
<path d="M370.679 182.49H374.523L371.268 189.868H368.788L370.679 182.49Z" fill="#303030"/>
<path d="M383.518 204.314C382.175 204.314 380.966 204.076 379.891 203.601C378.837 203.105 378 202.444 377.38 201.617C376.76 200.77 376.43 199.829 376.388 198.796H380.046C380.108 199.519 380.449 200.129 381.069 200.625C381.71 201.1 382.506 201.338 383.456 201.338C384.448 201.338 385.213 201.152 385.75 200.78C386.308 200.387 386.587 199.891 386.587 199.292C386.587 198.651 386.277 198.176 385.657 197.866C385.058 197.556 384.097 197.215 382.774 196.843C381.493 196.492 380.449 196.151 379.643 195.82C378.837 195.489 378.135 194.983 377.535 194.301C376.957 193.619 376.667 192.72 376.667 191.604C376.667 190.695 376.936 189.868 377.473 189.124C378.011 188.359 378.775 187.76 379.767 187.326C380.78 186.892 381.937 186.675 383.239 186.675C385.182 186.675 386.742 187.171 387.92 188.163C389.119 189.134 389.76 190.467 389.842 192.162H386.308C386.246 191.397 385.936 190.788 385.378 190.333C384.82 189.878 384.066 189.651 383.115 189.651C382.185 189.651 381.472 189.827 380.976 190.178C380.48 190.529 380.232 190.994 380.232 191.573C380.232 192.028 380.398 192.41 380.728 192.72C381.059 193.03 381.462 193.278 381.937 193.464C382.413 193.629 383.115 193.846 384.045 194.115C385.285 194.446 386.298 194.787 387.083 195.138C387.889 195.469 388.582 195.965 389.16 196.626C389.739 197.287 390.039 198.166 390.059 199.261C390.059 200.232 389.791 201.1 389.253 201.865C388.716 202.63 387.951 203.229 386.959 203.663C385.988 204.097 384.841 204.314 383.518 204.314Z" fill="#303030"/>
<path d="M412.843 192.968C414 193.175 414.982 193.784 415.788 194.797C416.594 195.81 416.997 196.957 416.997 198.238C416.997 199.333 416.707 200.325 416.129 201.214C415.571 202.082 414.754 202.774 413.68 203.291C412.605 203.787 411.355 204.035 409.929 204.035H401.311V182.49H409.526C410.993 182.49 412.254 182.738 413.308 183.234C414.362 183.73 415.157 184.402 415.695 185.249C416.232 186.076 416.501 187.006 416.501 188.039C416.501 189.279 416.17 190.312 415.509 191.139C414.847 191.966 413.959 192.575 412.843 192.968ZM404.845 191.542H409.216C410.373 191.542 411.272 191.284 411.913 190.767C412.574 190.23 412.905 189.465 412.905 188.473C412.905 187.502 412.574 186.747 411.913 186.21C411.272 185.652 410.373 185.373 409.216 185.373H404.845V191.542ZM409.619 201.152C410.817 201.152 411.758 200.863 412.44 200.284C413.122 199.705 413.463 198.899 413.463 197.866C413.463 196.812 413.101 195.975 412.378 195.355C411.654 194.735 410.693 194.425 409.495 194.425H404.845V201.152H409.619Z" fill="#303030"/>
<path d="M436.182 195.076C436.182 195.717 436.141 196.295 436.058 196.812H423.007C423.11 198.176 423.617 199.271 424.526 200.098C425.435 200.925 426.551 201.338 427.874 201.338C429.775 201.338 431.119 200.542 431.904 198.951H435.717C435.2 200.522 434.26 201.813 432.896 202.826C431.553 203.818 429.879 204.314 427.874 204.314C426.241 204.314 424.774 203.952 423.472 203.229C422.191 202.485 421.178 201.452 420.434 200.129C419.711 198.786 419.349 197.236 419.349 195.479C419.349 193.722 419.7 192.183 420.403 190.86C421.126 189.517 422.129 188.483 423.41 187.76C424.712 187.037 426.2 186.675 427.874 186.675C429.486 186.675 430.922 187.026 432.183 187.729C433.444 188.432 434.425 189.424 435.128 190.705C435.831 191.966 436.182 193.423 436.182 195.076ZM432.493 193.96C432.472 192.658 432.007 191.614 431.098 190.829C430.189 190.044 429.062 189.651 427.719 189.651C426.5 189.651 425.456 190.044 424.588 190.829C423.72 191.594 423.203 192.637 423.038 193.96H432.493Z" fill="#303030"/>
<path d="M445.55 204.314C444.207 204.314 442.998 204.076 441.923 203.601C440.869 203.105 440.032 202.444 439.412 201.617C438.792 200.77 438.461 199.829 438.42 198.796H442.078C442.14 199.519 442.481 200.129 443.101 200.625C443.742 201.1 444.537 201.338 445.488 201.338C446.48 201.338 447.245 201.152 447.782 200.78C448.34 200.387 448.619 199.891 448.619 199.292C448.619 198.651 448.309 198.176 447.689 197.866C447.09 197.556 446.129 197.215 444.806 196.843C443.525 196.492 442.481 196.151 441.675 195.82C440.869 195.489 440.166 194.983 439.567 194.301C438.988 193.619 438.699 192.72 438.699 191.604C438.699 190.695 438.968 189.868 439.505 189.124C440.042 188.359 440.807 187.76 441.799 187.326C442.812 186.892 443.969 186.675 445.271 186.675C447.214 186.675 448.774 187.171 449.952 188.163C451.151 189.134 451.791 190.467 451.874 192.162H448.34C448.278 191.397 447.968 190.788 447.41 190.333C446.852 189.878 446.098 189.651 445.147 189.651C444.217 189.651 443.504 189.827 443.008 190.178C442.512 190.529 442.264 190.994 442.264 191.573C442.264 192.028 442.429 192.41 442.76 192.72C443.091 193.03 443.494 193.278 443.969 193.464C444.444 193.629 445.147 193.846 446.077 194.115C447.317 194.446 448.33 194.787 449.115 195.138C449.921 195.469 450.613 195.965 451.192 196.626C451.771 197.287 452.07 198.166 452.091 199.261C452.091 200.232 451.822 201.1 451.285 201.865C450.748 202.63 449.983 203.229 448.991 203.663C448.02 204.097 446.873 204.314 445.55 204.314Z" fill="#303030"/>
<path d="M459.723 189.837V199.292C459.723 199.933 459.867 200.398 460.157 200.687C460.467 200.956 460.983 201.09 461.707 201.09H463.877V204.035H461.087C459.495 204.035 458.276 203.663 457.429 202.919C456.581 202.175 456.158 200.966 456.158 199.292V189.837H454.143V186.954H456.158V182.707H459.723V186.954H463.877V189.837H459.723Z" fill="#303030"/>
<path d="M481.603 182.49C483.897 182.49 485.902 182.934 487.617 183.823C489.353 184.691 490.686 185.952 491.616 187.605C492.567 189.238 493.042 191.149 493.042 193.34C493.042 195.531 492.567 197.432 491.616 199.044C490.686 200.656 489.353 201.896 487.617 202.764C485.902 203.611 483.897 204.035 481.603 204.035H474.566V182.49H481.603ZM481.603 201.152C484.125 201.152 486.057 200.47 487.4 199.106C488.744 197.742 489.415 195.82 489.415 193.34C489.415 190.839 488.744 188.886 487.4 187.481C486.057 186.076 484.125 185.373 481.603 185.373H478.1V201.152H481.603Z" fill="#303030"/>
<path d="M511.89 195.076C511.89 195.717 511.849 196.295 511.766 196.812H498.715C498.818 198.176 499.325 199.271 500.234 200.098C501.143 200.925 502.259 201.338 503.582 201.338C505.483 201.338 506.827 200.542 507.612 198.951H511.425C510.908 200.522 509.968 201.813 508.604 202.826C507.261 203.818 505.587 204.314 503.582 204.314C501.949 204.314 500.482 203.952 499.18 203.229C497.899 202.485 496.886 201.452 496.142 200.129C495.419 198.786 495.057 197.236 495.057 195.479C495.057 193.722 495.408 192.183 496.111 190.86C496.834 189.517 497.837 188.483 499.118 187.76C500.42 187.037 501.908 186.675 503.582 186.675C505.194 186.675 506.63 187.026 507.891 187.729C509.152 188.432 510.133 189.424 510.836 190.705C511.539 191.966 511.89 193.423 511.89 195.076ZM508.201 193.96C508.18 192.658 507.715 191.614 506.806 190.829C505.897 190.044 504.77 189.651 503.427 189.651C502.208 189.651 501.164 190.044 500.296 190.829C499.428 191.594 498.911 192.637 498.746 193.96H508.201Z" fill="#303030"/>
<path d="M521.661 200.873L526.497 186.954H530.248L523.738 204.035H519.522L513.043 186.954H516.825L521.661 200.873Z" fill="#303030"/>
<path d="M548.264 195.076C548.264 195.717 548.223 196.295 548.14 196.812H535.089C535.192 198.176 535.699 199.271 536.608 200.098C537.517 200.925 538.633 201.338 539.956 201.338C541.857 201.338 543.201 200.542 543.986 198.951H547.799C547.282 200.522 546.342 201.813 544.978 202.826C543.635 203.818 541.961 204.314 539.956 204.314C538.323 204.314 536.856 203.952 535.554 203.229C534.273 202.485 533.26 201.452 532.516 200.129C531.793 198.786 531.431 197.236 531.431 195.479C531.431 193.722 531.782 192.183 532.485 190.86C533.208 189.517 534.211 188.483 535.492 187.76C536.794 187.037 538.282 186.675 539.956 186.675C541.568 186.675 543.004 187.026 544.265 187.729C545.526 188.432 546.507 189.424 547.21 190.705C547.913 191.966 548.264 193.423 548.264 195.076ZM544.575 193.96C544.554 192.658 544.089 191.614 543.18 190.829C542.271 190.044 541.144 189.651 539.801 189.651C538.582 189.651 537.538 190.044 536.67 190.829C535.802 191.594 535.285 192.637 535.12 193.96H544.575Z" fill="#303030"/>
<path d="M554.966 181.095V204.035H551.432V181.095H554.966Z" fill="#303030"/>
<path d="M566.705 204.314C565.093 204.314 563.636 203.952 562.334 203.229C561.032 202.485 560.009 201.452 559.265 200.129C558.521 198.786 558.149 197.236 558.149 195.479C558.149 193.743 558.531 192.203 559.296 190.86C560.06 189.517 561.104 188.483 562.427 187.76C563.749 187.037 565.227 186.675 566.86 186.675C568.492 186.675 569.97 187.037 571.293 187.76C572.615 188.483 573.659 189.517 574.424 190.86C575.188 192.203 575.571 193.743 575.571 195.479C575.571 197.215 575.178 198.755 574.393 200.098C573.607 201.441 572.533 202.485 571.169 203.229C569.825 203.952 568.337 204.314 566.705 204.314ZM566.705 201.245C567.614 201.245 568.461 201.028 569.247 200.594C570.053 200.16 570.704 199.509 571.2 198.641C571.696 197.773 571.944 196.719 571.944 195.479C571.944 194.239 571.706 193.195 571.231 192.348C570.755 191.48 570.125 190.829 569.34 190.395C568.554 189.961 567.707 189.744 566.798 189.744C565.888 189.744 565.041 189.961 564.256 190.395C563.491 190.829 562.881 191.48 562.427 192.348C561.972 193.195 561.745 194.239 561.745 195.479C561.745 197.318 562.21 198.744 563.14 199.757C564.09 200.749 565.279 201.245 566.705 201.245Z" fill="#303030"/>
<path d="M582.288 189.465C582.888 188.68 583.704 188.018 584.737 187.481C585.771 186.944 586.938 186.675 588.24 186.675C589.728 186.675 591.082 187.047 592.301 187.791C593.541 188.514 594.513 189.537 595.215 190.86C595.918 192.183 596.269 193.702 596.269 195.417C596.269 197.132 595.918 198.672 595.215 200.036C594.513 201.379 593.541 202.433 592.301 203.198C591.082 203.942 589.728 204.314 588.24 204.314C586.938 204.314 585.781 204.056 584.768 203.539C583.756 203.002 582.929 202.34 582.288 201.555V212.157H578.754V186.954H582.288V189.465ZM592.673 195.417C592.673 194.239 592.425 193.226 591.929 192.379C591.454 191.511 590.813 190.86 590.007 190.426C589.222 189.971 588.375 189.744 587.465 189.744C586.577 189.744 585.729 189.971 584.923 190.426C584.138 190.881 583.497 191.542 583.001 192.41C582.526 193.278 582.288 194.301 582.288 195.479C582.288 196.657 582.526 197.69 583.001 198.579C583.497 199.447 584.138 200.108 584.923 200.563C585.729 201.018 586.577 201.245 587.465 201.245C588.375 201.245 589.222 201.018 590.007 200.563C590.813 200.088 591.454 199.406 591.929 198.517C592.425 197.628 592.673 196.595 592.673 195.417Z" fill="#303030"/>
<path d="M620.131 186.675C621.474 186.675 622.673 186.954 623.727 187.512C624.802 188.07 625.639 188.897 626.238 189.992C626.858 191.087 627.168 192.41 627.168 193.96V204.035H623.665V194.487C623.665 192.958 623.283 191.79 622.518 190.984C621.753 190.157 620.71 189.744 619.387 189.744C618.064 189.744 617.01 190.157 616.225 190.984C615.46 191.79 615.078 192.958 615.078 194.487V204.035H611.575V194.487C611.575 192.958 611.193 191.79 610.428 190.984C609.663 190.157 608.62 189.744 607.297 189.744C605.974 189.744 604.92 190.157 604.135 190.984C603.37 191.79 602.988 192.958 602.988 194.487V204.035H599.454V186.954H602.988V188.907C603.567 188.204 604.3 187.657 605.189 187.264C606.078 186.871 607.028 186.675 608.041 186.675C609.405 186.675 610.624 186.964 611.699 187.543C612.774 188.122 613.6 188.959 614.179 190.054C614.696 189.021 615.502 188.204 616.597 187.605C617.692 186.985 618.87 186.675 620.131 186.675Z" fill="#303030"/>
<path d="M647.01 195.076C647.01 195.717 646.969 196.295 646.886 196.812H633.835C633.938 198.176 634.445 199.271 635.354 200.098C636.263 200.925 637.379 201.338 638.702 201.338C640.603 201.338 641.947 200.542 642.732 198.951H646.545C646.028 200.522 645.088 201.813 643.724 202.826C642.381 203.818 640.707 204.314 638.702 204.314C637.069 204.314 635.602 203.952 634.3 203.229C633.019 202.485 632.006 201.452 631.262 200.129C630.539 198.786 630.177 197.236 630.177 195.479C630.177 193.722 630.528 192.183 631.231 190.86C631.954 189.517 632.957 188.483 634.238 187.76C635.54 187.037 637.028 186.675 638.702 186.675C640.314 186.675 641.75 187.026 643.011 187.729C644.272 188.432 645.253 189.424 645.956 190.705C646.659 191.966 647.01 193.423 647.01 195.076ZM643.321 193.96C643.3 192.658 642.835 191.614 641.926 190.829C641.017 190.044 639.89 189.651 638.547 189.651C637.328 189.651 636.284 190.044 635.416 190.829C634.548 191.594 634.031 192.637 633.866 193.96H643.321Z" fill="#303030"/>
<path d="M658.796 186.675C660.139 186.675 661.338 186.954 662.392 187.512C663.466 188.07 664.303 188.897 664.903 189.992C665.502 191.087 665.802 192.41 665.802 193.96V204.035H662.299V194.487C662.299 192.958 661.916 191.79 661.152 190.984C660.387 190.157 659.343 189.744 658.021 189.744C656.698 189.744 655.644 190.157 654.859 190.984C654.094 191.79 653.712 192.958 653.712 194.487V204.035H650.178V186.954H653.712V188.907C654.29 188.204 655.024 187.657 655.913 187.264C656.822 186.871 657.783 186.675 658.796 186.675Z" fill="#303030"/>
<path d="M674.123 189.837V199.292C674.123 199.933 674.267 200.398 674.557 200.687C674.867 200.956 675.383 201.09 676.107 201.09H678.277V204.035H675.487C673.895 204.035 672.676 203.663 671.829 202.919C670.981 202.175 670.558 200.966 670.558 199.292V189.837H668.543V186.954H670.558V182.707H674.123V186.954H678.277V189.837H674.123Z" fill="#303030"/>
<path d="M687.789 193.216C687.789 191.108 688.274 189.217 689.246 187.543C690.238 185.869 691.571 184.567 693.245 183.637C694.939 182.686 696.789 182.211 698.794 182.211C701.088 182.211 703.123 182.779 704.901 183.916C706.699 185.032 708.001 186.623 708.807 188.69H704.56C704.002 187.553 703.227 186.706 702.235 186.148C701.243 185.59 700.096 185.311 698.794 185.311C697.368 185.311 696.097 185.631 694.981 186.272C693.865 186.913 692.986 187.832 692.346 189.031C691.726 190.23 691.416 191.625 691.416 193.216C691.416 194.807 691.726 196.202 692.346 197.401C692.986 198.6 693.865 199.53 694.981 200.191C696.097 200.832 697.368 201.152 698.794 201.152C700.096 201.152 701.243 200.873 702.235 200.315C703.227 199.757 704.002 198.91 704.56 197.773H708.807C708.001 199.84 706.699 201.431 704.901 202.547C703.123 203.663 701.088 204.221 698.794 204.221C696.768 204.221 694.919 203.756 693.245 202.826C691.571 201.875 690.238 200.563 689.246 198.889C688.274 197.215 687.789 195.324 687.789 193.216Z" fill="#303030"/>
<path d="M728.288 195.076C728.288 195.717 728.247 196.295 728.164 196.812H715.113C715.216 198.176 715.723 199.271 716.632 200.098C717.541 200.925 718.657 201.338 719.98 201.338C721.881 201.338 723.225 200.542 724.01 198.951H727.823C727.306 200.522 726.366 201.813 725.002 202.826C723.659 203.818 721.985 204.314 719.98 204.314C718.347 204.314 716.88 203.952 715.578 203.229C714.297 202.485 713.284 201.452 712.54 200.129C711.817 198.786 711.455 197.236 711.455 195.479C711.455 193.722 711.806 192.183 712.509 190.86C713.232 189.517 714.235 188.483 715.516 187.76C716.818 187.037 718.306 186.675 719.98 186.675C721.592 186.675 723.028 187.026 724.289 187.729C725.55 188.432 726.531 189.424 727.234 190.705C727.937 191.966 728.288 193.423 728.288 195.076ZM724.599 193.96C724.578 192.658 724.113 191.614 723.204 190.829C722.295 190.044 721.168 189.651 719.825 189.651C718.606 189.651 717.562 190.044 716.694 190.829C715.826 191.594 715.309 192.637 715.144 193.96H724.599Z" fill="#303030"/>
<path d="M740.074 186.675C741.417 186.675 742.616 186.954 743.67 187.512C744.745 188.07 745.582 188.897 746.181 189.992C746.78 191.087 747.08 192.41 747.08 193.96V204.035H743.577V194.487C743.577 192.958 743.195 191.79 742.43 190.984C741.665 190.157 740.622 189.744 739.299 189.744C737.976 189.744 736.922 190.157 736.137 190.984C735.372 191.79 734.99 192.958 734.99 194.487V204.035H731.456V186.954H734.99V188.907C735.569 188.204 736.302 187.657 737.191 187.264C738.1 186.871 739.061 186.675 740.074 186.675Z" fill="#303030"/>
<path d="M755.401 189.837V199.292C755.401 199.933 755.545 200.398 755.835 200.687C756.145 200.956 756.661 201.09 757.385 201.09H759.555V204.035H756.765C755.173 204.035 753.954 203.663 753.107 202.919C752.259 202.175 751.836 200.966 751.836 199.292V189.837H749.821V186.954H751.836V182.707H755.401V186.954H759.555V189.837H755.401Z" fill="#303030"/>
<path d="M778.157 195.076C778.157 195.717 778.116 196.295 778.033 196.812H764.982C765.085 198.176 765.592 199.271 766.501 200.098C767.41 200.925 768.526 201.338 769.849 201.338C771.75 201.338 773.094 200.542 773.879 198.951H777.692C777.175 200.522 776.235 201.813 774.871 202.826C773.528 203.818 771.854 204.314 769.849 204.314C768.216 204.314 766.749 203.952 765.447 203.229C764.166 202.485 763.153 201.452 762.409 200.129C761.686 198.786 761.324 197.236 761.324 195.479C761.324 193.722 761.675 192.183 762.378 190.86C763.101 189.517 764.104 188.483 765.385 187.76C766.687 187.037 768.175 186.675 769.849 186.675C771.461 186.675 772.897 187.026 774.158 187.729C775.419 188.432 776.4 189.424 777.103 190.705C777.806 191.966 778.157 193.423 778.157 195.076ZM774.468 193.96C774.447 192.658 773.982 191.614 773.073 190.829C772.164 190.044 771.037 189.651 769.694 189.651C768.475 189.651 767.431 190.044 766.563 190.829C765.695 191.594 765.178 192.637 765.013 193.96H774.468Z" fill="#303030"/>
<path d="M784.859 189.434C785.375 188.566 786.057 187.894 786.905 187.419C787.773 186.923 788.796 186.675 789.974 186.675V190.333H789.075C787.69 190.333 786.636 190.684 785.913 191.387C785.21 192.09 784.859 193.309 784.859 195.045V204.035H781.325V186.954H784.859V189.434Z" fill="#303030"/>
<defs>
<linearGradient id="paint0_linear_1301_4689" x1="93.5615" y1="0.70068" x2="184.243" y2="238.979" gradientUnits="userSpaceOnUse">
<stop stop-color="#3043A9"/>
<stop offset="1" stop-color="#3180C8"/>
</linearGradient>
<linearGradient id="paint1_linear_1301_4689" x1="93.5615" y1="0.70068" x2="184.243" y2="238.979" gradientUnits="userSpaceOnUse">
<stop stop-color="#3043A9"/>
<stop offset="1" stop-color="#3180C8"/>
</linearGradient>
</defs>
</svg>
